<svg width="400" height="400" viewBox="0 0 400 400" fill="none" xmlns="http://www.w3.org/2000/svg">
<path d="M5.35278 41.8494H394.647L295.864 326.278L238.443 369.1H159.367L73.4793 269.1L5.35278 41.8494Z" fill="url(#paint0_linear_60_115)"/>
<path d="M5.35278 19.2794C5.35278 43.6834 5.82149 58.5883 7.10262 76.5241C14.5082 180.639 45.974 266.1 99.7189 328.063C107.812 337.375 116.186 345.842 125.966 354.654C147.714 374.184 175.118 391.401 195.585 398.4L200.022 399.9L204.49 398.4C219.395 393.307 238.737 382.402 256.423 369.059C298.45 337.437 332.447 292.816 355.851 238.54C376.224 191.326 388.66 136.956 392.941 76.5241C394.254 58.2758 394.754 40.4025 394.629 17.4046L394.535 0.0312805L383.598 4.87457C367.319 12.0614 360.976 14.7486 352.57 17.9983C324.292 28.9036 301.419 34.9655 288.607 34.9655C272.984 34.9655 239.831 25.1227 206.834 10.6865L200.022 7.71805L194.179 10.2803C181.649 15.7798 168.869 20.6856 155.964 24.9977C131.935 32.9969 116.624 35.9341 105.656 34.6843C95.5943 33.5281 83.158 30.4034 66.8782 24.9664C51.7234 19.9044 41.1932 15.7798 22.3824 7.46808C15.6956 4.4996 9.10243 1.62488 7.79005 1.03116L5.35278 3.05176e-05V19.2794ZM204.303 47.808C243.08 63.3378 273.265 71.0558 291.576 70.1497C302.7 69.5872 315.449 67.1187 331.572 62.3691C336.978 60.7755 351.508 55.9635 356.507 54.0887L359.101 53.12L358.913 56.9322C357.382 86.6169 354.945 108.896 350.602 133.019C336.697 210.105 306.231 273.412 261.422 318.22C243.549 336.093 224.488 350.186 205.115 359.904L200.084 362.435L197.928 361.435C191.492 358.435 182.399 353.217 175.024 348.28C130.872 318.783 95.2506 272.474 72.3777 214.792C57.8166 178.14 48.2237 136.893 43.6617 91.5227C42.5055 80.2737 42.0368 73.7118 41.0994 56.7759L40.9119 53.12L43.5367 54.0887C48.4112 55.9323 63.0036 60.7755 68.4718 62.3691C78.0022 65.1814 87.7825 67.5249 94.2507 68.5561C95.9693 68.8061 98.219 69.181 99.2502 69.3372C100.281 69.4935 103.406 69.8059 106.218 70.0247C117.873 70.8683 132.153 68.7123 152.12 63.0566C163.057 59.9631 182.524 53.1513 195.335 47.9643C197.647 47.0269 199.741 46.2457 199.928 46.2144C200.147 46.2144 202.116 46.9331 204.303 47.808Z" fill="url(#paint1_linear_60_115)"/>
<path d="M200 254.501C166.406 254.501 139.173 227.268 139.173 193.674C139.173 160.08 166.406 132.847 200 132.847C233.594 132.847 260.827 160.08 260.827 193.674C260.827 227.268 233.594 254.501 200 254.501ZM193.917 198.492V218.005H206.083V198.492C211.454 196.145 215.207 190.786 215.207 184.55C215.207 176.152 208.399 169.343 200 169.343C191.602 169.343 184.793 176.152 184.793 184.55C184.793 190.786 188.546 196.145 193.917 198.492Z" fill="url(#paint2_linear_60_115)"/>
<defs>
<linearGradient id="paint0_linear_60_115" x1="200" y1="46.7155" x2="200" y2="362.044" gradientUnits="userSpaceOnUse">
<stop stop-color="#FFBE5C"/>
<stop offset="1" stop-color="#FF3535"/>
</linearGradient>
<linearGradient id="paint1_linear_60_115" x1="200" y1="399.9" x2="200" y2="3.05176e-05" gradientUnits="userSpaceOnUse">
<stop stop-color="#530707"/>
<stop offset="1" stop-color="#000B1C"/>
</linearGradient>
<linearGradient id="paint2_linear_60_115" x1="200" y1="132.847" x2="200" y2="254.501" gradientUnits="userSpaceOnUse">
<stop stop-color="#5C0000"/>
<stop offset="1"/>
</linearGradient>
</defs>
</svg>
