<svg width="180" height="40" viewBox="0 0 180 40" fill="none" xmlns="http://www.w3.org/2000/svg">
<g clip-path="url(#clip0_118_451)">
<path d="M40.5599 0.0626221L26.7025 39.1304H14.7929L0.935547 0.0626221H11.0642L20.7477 29.5583L30.4869 0.0626221H40.5599Z" fill="url(#paint0_linear_118_451)"/>
<path d="M68.8573 32.2296H54.2764L51.939 39.1304H41.9773L56.1129 0.0626221H67.1321L81.2677 39.1304H71.1947L68.8573 32.2296ZM66.4086 24.8835L61.5669 10.5809L56.7808 24.8835H66.4086Z" fill="url(#paint1_linear_118_451)"/>
<path d="M94.9195 0.0626221V23.4365C94.9195 25.7739 95.4945 27.5733 96.6447 28.8348C97.7948 30.0962 99.4829 30.727 101.709 30.727C103.935 30.727 105.642 30.0962 106.829 28.8348C108.016 27.5733 108.61 25.7739 108.61 23.4365V0.0626221H118.126V23.3809C118.126 26.8684 117.384 29.818 115.9 32.2296C114.416 34.6412 112.413 36.4591 109.89 37.6835C107.404 38.9078 104.621 39.52 101.542 39.52C98.4627 39.52 95.6986 38.9264 93.2499 37.7391C90.8383 36.5148 88.9276 34.6968 87.5177 32.2852C86.1079 29.8365 85.4029 26.8684 85.4029 23.3809V0.0626221H94.9195Z" fill="url(#paint2_linear_118_451)"/>
<path d="M134.326 31.7844H146.792V39.1304H124.809V0.0626221H134.326V31.7844Z" fill="url(#paint3_linear_118_451)"/>
<path d="M179.435 0.0626221V7.68697H169.084V39.1304H159.567V7.68697H149.216V0.0626221H179.435Z" fill="url(#paint4_linear_118_451)"/>
</g>
<defs>
<linearGradient id="paint0_linear_118_451" x1="1.30409" y1="1.9505e-05" x2="134.345" y2="91.5667" gradientUnits="userSpaceOnUse">
<stop stop-color="#FF577F"/>
<stop offset="1" stop-color="#4B5DFF"/>
</linearGradient>
<linearGradient id="paint1_linear_118_451" x1="1.30409" y1="1.9505e-05" x2="134.345" y2="91.5667" gradientUnits="userSpaceOnUse">
<stop stop-color="#FF577F"/>
<stop offset="1" stop-color="#4B5DFF"/>
</linearGradient>
<linearGradient id="paint2_linear_118_451" x1="1.30409" y1="1.9505e-05" x2="134.345" y2="91.5667" gradientUnits="userSpaceOnUse">
<stop stop-color="#FF577F"/>
<stop offset="1" stop-color="#4B5DFF"/>
</linearGradient>
<linearGradient id="paint3_linear_118_451" x1="1.30409" y1="1.9505e-05" x2="134.345" y2="91.5667" gradientUnits="userSpaceOnUse">
<stop stop-color="#FF577F"/>
<stop offset="1" stop-color="#4B5DFF"/>
</linearGradient>
<linearGradient id="paint4_linear_118_451" x1="1.30409" y1="1.9505e-05" x2="134.345" y2="91.5667" gradientUnits="userSpaceOnUse">
<stop stop-color="#FF577F"/>
<stop offset="1" stop-color="#4B5DFF"/>
</linearGradient>
<clipPath id="clip0_118_451">
<rect width="179.13" height="40" fill="white" transform="translate(0.43457)"/>
</clipPath>
</defs>
</svg>
